<?xml version="1.0" standalone="no"?>
<!DOCTYPE svg PUBLIC "-//W3C//DTD SVG 20010904//EN"
 "http://www.w3.org/TR/2001/REC-SVG-20010904/DTD/svg10.dtd">
<svg version="1.0" xmlns="http://www.w3.org/2000/svg"
 width="500" height="450" viewBox="0 0 957.000000 718.000000"
 preserveAspectRatio="xMidYMid meet">

<g transform="translate(0.000000,718.000000) scale(0.100000,-0.100000)"
fill="#000000" stroke="none">
<path d="M2090 6849 c-155 -14 -330 -71 -575 -188 -235 -113 -367 -210 -608
-448 -141 -139 -169 -173 -263 -315 -136 -207 -155 -242 -204 -371 -43 -115
-104 -361 -116 -463 -15 -143 42 -488 100 -602 25 -49 34 -57 101 -89 68 -32
87 -36 242 -50 137 -13 190 -13 288 -4 66 6 157 11 203 11 l83 0 -91 -107
c-97 -115 -103 -134 -60 -177 20 -20 272 -79 476 -111 193 -31 428 -9 672 62
30 8 57 11 62 7 4 -5 25 -61 46 -124 21 -63 53 -135 69 -161 17 -25 48 -76 69
-115 21 -38 60 -97 87 -131 27 -35 49 -66 49 -71 0 -5 -14 -21 -31 -38 -42
-40 -140 -178 -196 -277 -25 -45 -72 -127 -103 -182 -58 -102 -82 -157 -170
-398 -53 -146 -77 -242 -84 -334 -4 -62 0 -58 -116 -118 -47 -24 -118 -66
-158 -95 -62 -43 -77 -60 -98 -107 -44 -102 -74 -215 -74 -286 0 -96 12 -114
99 -154 41 -19 88 -45 104 -59 45 -38 93 -59 207 -92 96 -28 123 -31 315 -37
172 -6 231 -4 325 10 266 39 384 72 392 112 3 10 2 65 0 123 -5 116 24 399 59
585 19 97 98 360 119 395 6 9 32 3 111 -28 113 -44 262 -92 284 -92 8 0 16 -4
20 -9 5 -10 -24 -139 -65 -286 -19 -68 -142 -601 -161 -700 -6 -27 -18 -96
-29 -153 -15 -81 -28 -119 -64 -185 -39 -73 -46 -96 -60 -195 -9 -62 -16 -146
-16 -188 0 -74 0 -75 42 -120 51 -56 132 -104 173 -104 17 0 62 -13 100 -29
87 -37 173 -54 290 -57 70 -2 103 -8 150 -28 52 -22 75 -26 165 -25 80 0 118
4 160 20 87 32 109 37 208 48 68 7 112 18 158 40 79 37 274 169 274 186 0 7 9
23 19 37 20 24 20 25 -20 159 -156 531 -149 500 -160 667 -10 145 -9 261 7
485 4 48 11 90 15 93 5 3 80 -4 167 -15 341 -44 908 -58 1082 -27 47 9 146 23
220 32 206 24 597 112 715 161 33 14 132 54 220 90 183 74 195 81 322 180 52
40 95 73 97 73 7 0 -11 -76 -26 -110 -14 -32 -29 -41 -158 -100 -78 -36 -169
-83 -201 -106 -111 -76 -219 -231 -254 -364 -30 -111 -11 -263 40 -342 51 -77
299 -163 406 -141 41 8 65 6 127 -9 82 -20 126 -18 242 9 36 8 106 18 155 22
96 8 146 26 325 121 156 83 278 237 370 470 131 330 134 342 135 605 l0 200
-38 143 c-21 79 -42 166 -47 193 -5 27 -37 111 -71 185 -64 139 -65 153 -19
154 30 0 122 50 198 107 100 75 208 182 261 261 129 191 176 409 106 490 l-24
27 -63 -24 c-150 -56 -226 -83 -278 -100 -30 -10 -79 -30 -109 -45 l-54 -28
-49 56 c-27 30 -67 65 -89 78 -45 25 -51 40 -94 236 -118 537 -140 601 -291
872 -119 214 -259 392 -500 637 -199 201 -217 216 -369 316 -233 153 -278 172
-585 257 -423 116 -670 149 -971 131 -302 -18 -589 -90 -954 -238 -121 -49
-510 -246 -592 -300 -82 -54 -331 -271 -405 -354 -154 -171 -192 -219 -250
-316 -34 -56 -64 -100 -68 -98 -9 6 -19 105 -35 360 -19 294 -48 499 -84 594
-35 93 -119 201 -156 201 -5 0 -33 19 -64 42 -56 43 -242 125 -404 179 -172
57 -272 78 -432 89 -85 6 -163 12 -173 14 -9 1 -55 -1 -102 -5z m290 -93 c141
-12 201 -22 309 -51 246 -68 459 -169 574 -274 49 -44 87 -132 87 -198 0 -72
28 -492 35 -513 12 -43 76 -567 85 -705 26 -396 53 -541 140 -770 90 -237 111
-272 218 -358 133 -107 163 -127 192 -127 23 0 38 -14 93 -88 83 -112 154
-198 287 -348 58 -66 117 -135 130 -154 57 -83 301 -343 409 -437 l35 -30 -32
-134 c-74 -310 -112 -519 -137 -742 -12 -112 -13 -169 -5 -300 17 -267 18
-276 131 -647 32 -107 59 -211 59 -230 0 -30 -10 -44 -73 -105 -111 -107 -246
-170 -382 -177 l-69 -3 -19 50 c-36 97 -107 145 -217 145 -70 0 -128 -21 -187
-66 l-32 -24 -17 32 c-53 103 -111 140 -229 146 -68 4 -90 1 -130 -17 -26 -11
-49 -21 -50 -21 -1 0 -7 18 -14 39 -13 47 -56 86 -111 102 -25 8 -40 18 -40
28 0 39 33 133 75 216 38 75 50 113 71 225 56 302 68 355 129 605 85 343 166
588 243 732 112 211 244 368 371 442 74 43 96 64 86 81 -11 17 -25 12 -109
-44 -44 -29 -91 -57 -104 -61 -56 -17 -785 38 -914 68 -189 46 -380 250 -604
648 -95 168 -184 345 -184 365 0 6 40 24 90 40 100 30 119 44 94 65 -14 11
-34 7 -137 -28 -67 -23 -142 -45 -167 -49 -25 -3 -52 -10 -61 -15 -41 -21
-303 -61 -439 -66 -123 -5 -162 -2 -260 16 -133 25 -224 52 -213 62 5 3 45 18
89 33 96 31 365 163 479 233 44 28 141 87 215 132 74 46 144 90 155 100 11 10
67 46 125 82 125 76 185 128 200 175 6 19 16 34 20 34 12 0 119 -85 143 -114
58 -67 89 -96 98 -91 5 4 9 10 9 15 0 18 -73 94 -157 164 -48 40 -99 85 -112
100 -14 14 -35 26 -48 26 -27 0 -28 -6 -8 -40 23 -40 17 -67 -22 -111 -102
-113 -352 -233 -613 -295 -180 -43 -342 -75 -425 -84 -454 -51 -966 -48 -1026
6 -32 29 -70 115 -90 206 -15 67 -23 142 -26 268 -5 154 -3 185 16 263 27 113
108 330 176 473 93 194 178 309 359 488 89 87 196 186 238 220 195 156 593
344 827 391 87 17 160 17 371 1z m3930 -169 c168 -33 551 -129 645 -163 39
-14 96 -37 127 -51 48 -21 57 -29 53 -47 -2 -11 -7 -49 -10 -84 -7 -70 -33
-178 -72 -297 -45 -138 -160 -398 -194 -439 -41 -50 -190 -146 -289 -187 -41
-18 -154 -52 -250 -76 l-175 -44 -433 0 -433 0 -52 24 c-85 39 -169 124 -215
220 -55 112 -66 170 -58 308 3 63 10 193 15 289 8 149 26 302 46 387 4 17 27
29 127 62 135 45 403 108 513 121 39 5 171 7 295 6 193 -3 244 -7 360 -29z
m-1345 -209 c-4 -29 -13 -80 -21 -113 -8 -33 -14 -114 -14 -180 0 -67 -7 -172
-16 -235 -17 -125 -14 -213 12 -314 37 -144 135 -271 253 -329 l66 -32 410 -7
c225 -5 435 -5 465 -2 99 10 373 83 474 126 119 50 258 139 307 196 40 47 114
211 187 417 53 149 76 241 88 343 4 34 11 62 18 62 6 0 41 -21 78 -47 72 -49
79 -63 57 -120 -6 -15 -24 -86 -40 -158 -67 -297 -160 -521 -322 -775 -24 -37
-33 -121 -18 -159 19 -44 336 -340 401 -375 232 -121 340 -161 505 -190 132
-23 151 -21 363 31 218 54 204 57 222 -37 6 -30 17 -80 25 -110 7 -30 12 -56
11 -57 -1 -2 -26 6 -54 17 -62 24 -149 26 -218 5 -89 -26 -285 -160 -416 -283
-106 -100 -266 -284 -338 -388 -276 -398 -311 -455 -323 -521 -8 -43 16 -130
63 -227 57 -117 57 -118 -47 -144 -49 -12 -106 -23 -128 -24 l-40 -3 -5 125
c-7 152 -23 193 -111 275 -98 90 -98 90 -307 91 -101 1 -204 5 -230 9 -102 15
-314 67 -442 109 -168 55 -318 80 -454 74 -114 -5 -140 -15 -223 -84 -28 -24
-54 -44 -58 -44 -10 0 -149 96 -163 112 -9 12 -2 37 39 131 71 164 93 294 93
557 l1 195 -43 120 c-23 65 -57 144 -75 174 -44 75 -165 200 -267 277 -178
135 -310 183 -665 244 -94 16 -223 41 -286 54 -63 14 -147 28 -186 32 -40 3
-73 8 -73 10 0 2 7 19 16 37 l16 34 212 6 c116 4 267 11 336 16 158 11 400 56
465 85 122 55 179 147 220 356 14 71 16 116 10 275 -7 203 6 310 43 354 15 18
101 59 125 60 5 1 6 -23 2 -51z m-195 -32 c0 -3 -7 -37 -15 -76 -12 -57 -14
-111 -9 -254 7 -199 0 -270 -42 -405 -20 -66 -35 -93 -69 -130 -47 -50 -137
-101 -178 -101 -13 0 -66 -9 -118 -21 -144 -31 -728 -64 -750 -42 -22 22 238
361 373 484 262 239 401 341 638 465 152 80 170 88 170 80z m2862 -398 c159
-168 378 -421 450 -523 100 -140 200 -337 242 -476 63 -213 96 -349 83 -349
-3 0 -99 -23 -213 -50 -205 -49 -211 -50 -288 -39 -120 16 -324 83 -455 149
-106 53 -129 70 -269 200 -85 78 -162 156 -173 174 -39 63 -27 108 70 268 98
160 221 490 271 727 12 58 26 116 31 129 l9 24 39 -31 c21 -17 113 -108 203
-203z m-3903 -802 c79 -21 196 -44 336 -66 355 -56 526 -134 754 -346 103 -95
185 -239 232 -409 38 -140 19 -528 -36 -690 -27 -82 -73 -175 -85 -175 -11 0
-150 164 -327 385 -212 265 -264 313 -533 497 -178 121 -285 170 -432 198 -38
7 -68 13 -68 15 0 1 -4 26 -10 54 -5 29 -16 154 -25 279 -8 125 -18 240 -21
256 l-6 29 82 -6 c45 -4 107 -13 139 -21z m-1590 -629 c-2 -2 -76 -48 -164
-102 -262 -161 -505 -271 -684 -310 l-35 -7 34 43 c19 24 71 82 115 130 44 47
87 94 96 105 13 16 40 25 129 38 115 18 435 87 480 104 22 9 41 8 29 -1z
m1565 -27 c99 -28 175 -66 316 -160 262 -173 336 -243 553 -522 258 -331 331
-402 587 -572 200 -132 398 -243 598 -333 276 -124 420 -165 695 -198 120 -14
169 -15 375 -5 242 12 274 17 457 71 316 94 524 163 600 200 216 104 497 423
591 673 15 39 42 110 61 158 46 119 59 194 44 265 -6 31 -11 70 -11 87 l1 31
35 -40 c20 -22 54 -76 77 -120 37 -72 41 -87 41 -155 1 -63 -6 -96 -42 -202
-24 -69 -56 -146 -71 -170 -15 -23 -65 -104 -111 -178 -192 -310 -228 -351
-445 -515 -84 -63 -121 -84 -230 -126 -71 -27 -170 -67 -220 -89 -49 -21 -120
-47 -157 -59 -77 -23 -293 -66 -383 -76 -33 -4 -99 -13 -146 -21 -130 -21
-497 -62 -623 -70 -120 -6 -275 6 -390 32 -193 44 -324 82 -455 131 -301 111
-436 194 -627 387 -71 72 -166 176 -211 231 -44 55 -140 170 -212 255 -73 85
-190 229 -261 320 -70 91 -139 175 -151 187 -27 25 -61 39 -128 54 -57 13 -85
38 -123 113 -39 78 -122 289 -137 351 -6 28 -14 58 -17 68 -7 23 31 23 120 -3z
m4721 -199 c60 -27 71 -47 90 -154 26 -147 19 -193 -59 -389 -100 -253 -181
-380 -347 -547 -163 -164 -277 -226 -549 -301 -36 -9 -113 -34 -171 -54 -122
-41 -119 -41 -119 -21 0 8 -21 54 -46 102 -61 114 -69 184 -32 264 39 85 284
442 408 594 87 106 283 295 390 375 94 71 161 110 230 136 53 19 158 17 205
-5z m805 -133 c0 -60 -24 -166 -49 -219 -30 -62 -201 -270 -272 -329 -72 -60
-183 -126 -226 -135 -18 -4 -33 -4 -33 0 0 3 11 27 24 53 38 75 106 297 106
344 0 24 -5 61 -11 83 -5 22 -11 46 -12 53 -1 9 54 33 163 72 91 31 194 71
230 88 36 17 68 31 73 31 4 1 7 -18 7 -41z m-5261 -302 c14 -14 20 -26 14 -26
-13 0 -92 62 -92 73 -1 13 52 -19 78 -47z m1625 -466 c119 -12 201 -31 321
-77 50 -19 160 -50 245 -70 142 -33 172 -36 365 -42 167 -5 216 -10 240 -23
52 -28 132 -121 146 -169 13 -46 17 -255 5 -267 -13 -12 -294 -14 -414 -3
-284 28 -473 81 -746 207 -222 102 -556 296 -556 323 0 17 101 104 136 116 46
17 122 18 258 5z m3069 -100 c102 -250 147 -448 147 -647 -1 -283 -31 -463
-107 -633 -102 -229 -181 -359 -257 -422 -58 -47 -316 -175 -370 -183 -59 -9
-77 0 -89 45 -22 86 -90 131 -208 138 -67 4 -82 2 -112 -17 -19 -12 -38 -28
-41 -36 -9 -24 -20 -18 -41 22 -34 65 -73 101 -127 119 -65 21 -113 8 -158
-42 -17 -20 -32 -35 -34 -33 -1 2 -10 16 -19 31 -10 15 -36 37 -58 48 -38 20
-40 23 -34 53 23 107 96 229 190 315 101 93 341 213 422 212 15 -1 45 -7 66
-14 20 -8 37 -10 37 -5 0 12 -34 45 -51 51 -11 4 -10 13 4 49 18 48 22 149 8
195 -5 16 -12 43 -15 60 -5 30 -3 32 61 58 86 35 143 73 294 194 144 115 178
154 274 307 151 242 155 249 170 234 7 -8 29 -52 48 -99z m-5790 5 l59 -75
-18 -46 c-28 -72 -9 -157 71 -321 59 -120 73 -141 160 -231 52 -55 95 -106 95
-113 0 -8 -20 -72 -45 -144 -24 -71 -58 -197 -74 -280 -34 -172 -71 -479 -71
-594 0 -51 -4 -82 -12 -89 -20 -15 -167 -57 -323 -92 -133 -30 -147 -32 -279
-26 -180 8 -181 8 -196 59 -18 62 -57 131 -97 169 -33 32 -36 33 -116 32 -45
0 -91 -2 -102 -5 -18 -4 -21 3 -26 56 -7 72 -19 98 -59 122 -33 19 -33 27 3
101 30 62 83 109 189 170 116 66 163 87 211 96 47 9 51 36 6 36 l-32 0 6 83
c4 60 16 114 46 200 41 117 134 358 150 387 168 312 347 581 385 580 6 -1 37
-34 69 -75z m170 -178 c87 -63 142 -90 223 -111 73 -19 464 -54 699 -63 96 -3
175 -8 175 -9 0 -2 -30 -41 -67 -86 -108 -135 -205 -299 -258 -441 -14 -37
-22 -46 -34 -41 -9 4 -54 17 -100 30 -293 81 -443 166 -559 316 -98 128 -195
372 -172 434 5 13 12 24 14 24 3 0 38 -24 79 -53z m2109 -516 c73 -38 187 -88
252 -111 66 -22 122 -42 124 -44 2 -2 -8 -27 -22 -54 -41 -81 -174 -235 -277
-323 l-47 -39 -141 19 c-78 10 -144 21 -147 23 -7 8 113 598 123 598 1 0 62
-31 135 -69z m2501 -70 c-110 -103 -236 -177 -448 -262 -173 -70 -451 -156
-463 -144 -2 2 11 25 29 52 18 26 47 81 65 121 18 41 36 78 41 82 4 5 78 18
163 30 282 39 414 71 575 140 39 16 75 29 80 29 6 0 -13 -21 -42 -48z m-1893
-150 c91 -23 213 -46 294 -56 77 -8 141 -17 143 -19 9 -8 -86 -132 -164 -214
l-88 -92 -110 -2 c-149 -3 -326 3 -523 18 l-73 6 99 101 c102 105 180 204 214
270 13 27 24 37 36 33 9 -3 87 -23 172 -45z m1009 -120 c-80 -155 -82 -156
-229 -185 -112 -23 -250 -41 -455 -61 l-70 -7 20 24 c12 12 49 53 82 90 34 37
78 96 97 131 l36 64 152 12 c84 7 212 20 283 30 72 9 131 13 133 9 2 -4 -20
-52 -49 -107z m-4931 -595 c15 -34 25 -178 13 -196 -8 -12 -15 -10 -42 15 -31
30 -31 31 -26 107 3 42 8 81 12 87 11 18 31 12 43 -13z m5382 -58 c20 -43 28
-158 12 -158 -20 0 -55 52 -63 92 -15 78 -12 108 11 108 15 0 27 -13 40 -42z
m263 23 c20 -8 36 -28 57 -73 38 -79 40 -142 8 -160 -58 -31 -275 2 -264 40 3
10 8 35 12 57 22 130 84 175 187 136z m394 -101 c18 -10 39 -30 48 -44 44 -66
-15 -108 -162 -114 -100 -5 -143 2 -143 21 0 24 58 135 77 146 32 18 144 13
180 -9z m-5782 -24 c31 -21 95 -145 95 -186 0 -16 -2 -30 -4 -30 -14 0 -159
57 -206 80 -103 52 -110 81 -31 132 51 33 100 34 146 4z m1372 -786 c55 -33
67 -62 71 -172 5 -118 -1 -121 -77 -50 l-51 48 0 90 c0 113 3 117 57 84z m369
-109 c73 -33 116 -97 129 -188 l7 -52 -38 -7 c-24 -4 -75 1 -148 15 -158 32
-196 55 -196 119 0 67 10 83 64 108 62 29 126 31 182 5z m446 -81 c21 -6 51
-22 67 -36 36 -30 79 -133 60 -145 -20 -12 -215 -21 -290 -14 -79 8 -104 24
-94 63 14 56 49 89 130 124 47 20 76 22 127 8z"/>
<path d="M2160 6429 c-107 -12 -156 -26 -230 -65 -138 -72 -297 -270 -352
-438 -20 -62 -23 -88 -21 -205 3 -166 14 -193 121 -290 87 -80 137 -103 287
-132 138 -26 241 -25 359 6 143 37 175 56 273 159 l88 92 44 128 c50 145 61
232 42 342 -28 156 -117 268 -276 344 -140 67 -188 75 -335 59z m313 -87 c45
-22 103 -59 128 -81 125 -110 163 -317 98 -526 -42 -134 -56 -159 -140 -249
-118 -125 -200 -157 -411 -158 -210 -1 -342 38 -437 131 -79 77 -96 123 -96
256 1 134 15 198 67 295 99 188 174 254 383 340 100 41 100 41 212 37 108 -3
115 -5 196 -45z"/>
<path d="M2213 6142 c-102 -37 -199 -139 -230 -241 -18 -62 -12 -201 12 -257
23 -55 119 -112 227 -135 39 -9 62 -7 129 11 45 11 99 30 120 41 102 52 160
155 162 289 1 67 -2 81 -32 138 -19 35 -48 75 -65 89 -86 73 -224 100 -323 65z
m200 -116 c18 -7 45 -28 61 -45 25 -25 30 -42 34 -91 4 -53 0 -69 -26 -123
-41 -83 -96 -142 -147 -156 -65 -18 -139 -14 -168 9 -52 41 -80 137 -61 208
l7 23 23 -22 c18 -17 24 -33 24 -68 0 -57 6 -66 53 -86 51 -21 85 -19 144 10
59 30 75 51 98 128 18 63 12 85 -30 113 -14 9 -25 26 -25 39 0 12 -9 34 -21
49 -23 29 -14 33 34 12z m-85 -22 c29 -20 29 -64 -2 -130 -27 -58 -56 -72
-111 -54 -48 16 -63 57 -41 115 30 77 99 108 154 69z"/>
<path d="M754 5215 c-28 -64 -31 -103 -8 -112 53 -20 124 113 82 155 -26 26
-49 13 -74 -43z"/>
<path d="M6310 5046 c-47 -13 -121 -30 -165 -38 -379 -72 -723 -147 -758 -164
-33 -18 -110 -120 -145 -194 -35 -72 -36 -181 -4 -290 12 -41 28 -124 37 -185
28 -204 110 -501 149 -540 16 -16 53 -30 122 -45 196 -44 231 -53 329 -90 116
-44 520 -146 615 -155 41 -4 105 0 169 9 58 9 123 16 147 16 51 0 221 60 289
102 141 86 279 242 366 414 37 73 42 91 46 171 9 156 -24 249 -138 382 -39 46
-92 95 -116 110 -25 14 -75 46 -111 70 -288 191 -278 182 -411 343 -39 47 -79
89 -89 93 -9 4 -69 9 -132 11 -98 3 -128 0 -200 -20z m325 -35 c16 -9 62 -57
102 -106 83 -103 99 -117 208 -189 44 -29 115 -77 157 -107 42 -30 97 -66 121
-80 55 -33 169 -165 201 -234 57 -120 57 -293 -1 -393 -53 -92 -148 -228 -192
-276 -66 -70 -171 -141 -265 -177 -101 -39 -288 -70 -426 -71 -91 -1 -122 4
-235 35 -71 20 -158 41 -192 47 -34 6 -139 38 -234 71 -101 35 -210 66 -267
75 -112 18 -146 33 -168 76 -32 63 -96 296 -115 423 -11 72 -31 177 -44 235
-15 62 -25 134 -25 176 0 61 5 81 35 140 19 38 53 91 77 117 42 47 45 48 168
78 69 16 204 43 300 59 96 16 238 43 315 60 77 17 178 39 225 50 98 21 207 18
255 -9z"/>
</g>
</svg>
